<?xml version="1.0" encoding="utf-8"?>
<svg version="1.1" id="Layer_1" xmlns="http://www.w3.org/2000/svg" xmlns:xlink="http://www.w3.org/1999/xlink" x="0px" y="0px"
	 width="250px" height="54px" viewBox="0 0 250 54" style="enable-background:new 0 0 250 54;" xml:space="preserve">
<path d="M52.3,25.8h-7v12.1h-4.6V7.3h11.6c6,0,9.8,4,9.8,9.3S58.2,25.8,52.3,25.8z M52,11.4h-6.7v10.2H52c3.3,0,5.4-1.9,5.4-5.1
	S55.3,11.4,52,11.4z"/>
<path d="M78.5,35.6c-1.7,1.7-4.1,2.7-6.5,2.6c-2.4,0.1-4.8-0.9-6.5-2.6c-2.1-2.2-2.6-4.9-2.6-8.6s0.5-6.4,2.6-8.6
	c1.7-1.7,4.1-2.7,6.5-2.6c2.4-0.1,4.8,0.9,6.5,2.6c2.1,2.2,2.6,4.9,2.6,8.6S80.6,33.4,78.5,35.6z M75.2,21c-0.9-0.8-2-1.3-3.2-1.2
	c-1.2,0-2.3,0.4-3.2,1.2c-1.3,1.3-1.5,3.6-1.5,6s0.2,4.6,1.5,6c0.8,0.8,2,1.3,3.2,1.3c1.2,0,2.4-0.4,3.2-1.3c1.3-1.3,1.5-3.6,1.5-6
	S76.5,22.3,75.2,21z"/>
<path d="M95.8,21.2c-1-1-1.8-1.5-3.3-1.5c-2.4,0-4.3,1.9-4.3,4.9v13.3h-4.4V16.1h4.3v2.4c1.1-1.6,3.4-2.6,5.8-2.6
	c1.9-0.1,3.8,0.7,5.2,2.1L95.8,21.2z"/>
<path d="M108,37.9c-4.1,0-6-2.9-6-6.1V19.5h-2.5v-3.3h2.5V9.9h4.4v6.2h4.2v3.4h-4.2v12.2c0,1.6,0.8,2.5,2.4,2.5h1.8v3.7L108,37.9z"
	/>
<path d="M122.8,38.2c-4.6,0-7.9-1.1-10.8-4.1l3.1-3.1c2.2,2.2,4.8,3,7.9,3c4,0,6.3-1.7,6.3-4.7c0-1.4-0.3-2.5-1.2-3.2
	c-0.8-0.7-1.8-1.1-3.4-1.3l-3.6-0.5c-2.5-0.4-4.4-1.2-5.8-2.5c-1.5-1.4-2.3-3.4-2.3-5.9c0-5.3,3.9-9,10.2-9c4.1,0,6.9,1,9.5,3.5
	l-2.9,2.9c-1.9-1.8-4.1-2.4-6.8-2.4c-3.6,0-5.5,2-5.5,4.8c-0.1,1.1,0.3,2.1,1.1,2.8c0.8,0.7,1.7,1.1,3.4,1.4l3.7,0.5
	c2.8,0.4,4.3,1.1,5.7,2.3c1.6,1.5,2.5,3.6,2.5,6.3C133.8,34.8,129.2,38.2,122.8,38.2z"/>
<path d="M157.5,37.9h-3.8l-5.1-15.2l-5.1,15.2h-3.8L133,16.1h4.6l4.2,15.4l5.1-15.4h3.4l5,15.4l4.2-15.4h4.7L157.5,37.9z"/>
<path d="M165.5,11.8V7.1h4.6v4.6H165.5z M165.7,37.9V16.1h4.4v21.8L165.7,37.9z"/>
<path d="M181.1,47c-3.3,0-5.4-0.8-7.7-2.9l2.8-2.8c1.2,1.3,2.9,2,4.7,1.9c3.7,0,5.1-2.6,5.1-5.6v-2.8c-1.6,1.9-3.4,2.5-5.6,2.5
	c-1.9,0.1-3.8-0.6-5.2-1.9c-2.1-2.1-2.5-5.2-2.5-8.9s0.3-6.8,2.5-8.9c1.2-1.2,3.1-1.9,5.2-1.9c2.3,0,4.1,0.6,5.7,2.6v-2.3h4.3v21.7
	C190.4,43.1,186.9,47,181.1,47z M181.6,19.8c-4,0-4.5,3.4-4.5,6.8s0.5,6.8,4.5,6.8s4.4-3.4,4.4-6.8S185.6,19.8,181.6,19.8
	L181.6,19.8z"/>
<path d="M201.6,47c-3.3,0-5.4-0.8-7.7-2.9l2.8-2.8c1.2,1.3,2.9,2,4.7,1.9c3.7,0,5.1-2.6,5.1-5.6v-2.8c-1.6,1.9-3.4,2.5-5.6,2.5
	c-1.9,0.1-3.8-0.6-5.2-1.9c-2.1-2.1-2.5-5.2-2.5-8.9s0.3-6.8,2.5-8.9c1.2-1.2,3.1-1.9,5.2-1.9c2.3,0,4.1,0.6,5.7,2.6v-2.3h4.3v21.7
	C211,43.1,207.4,47,201.6,47z M202.1,19.8c-4,0-4.5,3.4-4.5,6.8s0.5,6.8,4.5,6.8s4.4-3.4,4.4-6.8S206.1,19.8,202.1,19.8L202.1,19.8z
	"/>
<path d="M218,28.3c0,3.8,1.9,6.1,5.5,6.1c2.5,0,3.7-0.7,5.3-2.2l2.8,2.6c-2.2,2.2-4.3,3.4-8.2,3.4c-5.5,0-9.8-2.9-9.8-11.2
	c0-7.1,3.7-11.1,9.3-11.1c5.9,0,9.3,4.2,9.3,10.6v1.9L218,28.3z M227.2,22.3c-1.1-2.4-3.9-3.4-6.3-2.3c-1,0.5-1.8,1.3-2.3,2.3
	c-0.4,0.9-0.6,1.9-0.6,3h9.8C227.8,24.2,227.6,23.2,227.2,22.3L227.2,22.3z"/>
<path d="M246.7,21.2c-1-1-1.8-1.5-3.3-1.5c-2.4,0-4.3,1.9-4.3,4.9v13.3h-4.4V16.1h4.3v2.4c1.1-1.6,3.4-2.6,5.8-2.6
	c2-0.1,3.9,0.7,5.2,2.1L246.7,21.2z"/>
<rect x="0" y="7.1" fill="#FF6633" width="30.9" height="30.9"/>
<polygon fill="#FFFFFF" points="17.1,38.1 13.8,38.1 13.8,33.1 18.3,27.6 13.8,27.6 13.8,20.9 5.7,20.9 13.8,10.9 13.8,7.1 17.1,7.1 
	17.1,12.1 12.6,17.6 17.1,17.6 17.1,24.3 25.2,24.3 17.1,34.3 "/>
</svg>
